<svg width="291" height="63" viewBox="0 0 291 63" fill="none" xmlns="http://www.w3.org/2000/svg">
<path d="M0.52 -4.29153e-06H47.86C56.44 -4.29153e-06 63.85 3.06 70.09 9.18C76.27 15.36 79.36 22.77 79.36 31.41C79.36 40.17 76.27 47.64 70.09 53.82C63.91 59.94 56.5 63 47.86 63H0.52V-4.29153e-06ZM37.42 57.78C40.84 57.78 43.3 56.67 44.8 54.45C46.24 52.29 47.14 49.23 47.5 45.27C47.8 42.69 47.95 38.07 47.95 31.41C47.95 26.25 47.77 21.33 47.41 16.65C47.05 13.11 46.15 10.41 44.71 8.55C43.21 6.33 40.78 5.22 37.42 5.22H32.02V57.78H37.42ZM83.7524 -4.29153e-06H113.092V63H83.7524V-4.29153e-06ZM118.206 -4.29153e-06H147.546V63H118.206V-4.29153e-06ZM174.288 -4.29153e-06H200.568L228.468 63H194.448L184.998 42.12H165.198L157.098 63H150.528L174.288 -4.29153e-06ZM182.478 36.63L174.288 18.36L167.178 36.63H182.478ZM232.024 -4.29153e-06H258.484L284.764 31.5V-4.29153e-06H290.164V63H269.014L237.514 21.06V63H232.024V-4.29153e-06Z" fill="black"/>
</svg>
