<svg width="38" height="36" viewBox="0 0 38 36" fill="none" xmlns="http://www.w3.org/2000/svg">
<path d="M36.2039 9.55196H11.9599C11.7839 9.55196 11.6299 9.49329 11.4979 9.37596C11.3659 9.25862 11.2852 9.11196 11.2559 8.93596L9.84786 1.71996C9.78919 1.30929 9.61319 0.97929 9.31986 0.729957C9.02653 0.480624 8.67453 0.355957 8.26386 0.355957H1.83986C1.39986 0.355957 1.02586 0.509957 0.717859 0.817957C0.409859 1.12596 0.255859 1.49996 0.255859 1.93996V2.15996C0.255859 2.59996 0.409859 2.98129 0.717859 3.30396C1.02586 3.62662 1.39986 3.78796 1.83986 3.78796H6.32786C6.44519 3.78796 6.54786 3.82462 6.63586 3.89796C6.72386 3.97129 6.78253 4.06662 6.81186 4.18396L11.2999 28.12C11.3879 28.6773 11.6812 29.088 12.1799 29.352C12.4145 29.4986 12.6785 29.572 12.9719 29.572H13.7199C13.0745 30.3053 12.7665 31.1633 12.7959 32.146C12.8252 33.1286 13.1919 33.9573 13.8959 34.632C14.5999 35.3066 15.4432 35.644 16.4259 35.644C17.4085 35.644 18.2592 35.3066 18.9779 34.632C19.6965 33.9573 20.0705 33.1286 20.0999 32.146C20.1292 31.1633 19.8065 30.3053 19.1319 29.572H27.3159C26.6412 30.3053 26.3259 31.1633 26.3699 32.146C26.4139 33.1286 26.7879 33.9573 27.4919 34.632C28.1959 35.3066 29.0392 35.644 30.0219 35.644C31.0045 35.644 31.8479 35.3066 32.5519 34.632C33.2559 33.9573 33.6225 33.1286 33.6519 32.146C33.6812 31.1633 33.3732 30.3053 32.7279 29.572H33.4759C33.9159 29.572 34.2899 29.418 34.5979 29.11C34.9059 28.802 35.0599 28.428 35.0599 27.988V27.636C35.0599 27.196 34.8985 26.822 34.5759 26.514C34.2532 26.206 33.8719 26.052 33.4319 26.052H14.9959C14.8199 26.052 14.6659 25.9933 14.5339 25.876C14.4019 25.7586 14.3212 25.6266 14.2919 25.48L13.8519 23.104C13.8225 22.8693 13.8812 22.664 14.0279 22.488C14.1745 22.312 14.3505 22.2386 14.5559 22.268H34.7959C35.1772 22.268 35.5072 22.1506 35.7859 21.916C36.0645 21.6813 36.2332 21.3733 36.2919 20.992L37.7439 11.356C37.8319 10.8866 37.7219 10.4686 37.4139 10.102C37.1059 9.73529 36.7025 9.55196 36.2039 9.55196Z" fill="black"/>
</svg>
